<?xml version="1.0" ?><svg enable-background="new 0 0 64 64" id="Layer_1" version="1.1" viewBox="0 0 64 64" height="512px" width="512px" xml:space="preserve" xmlns="http://www.w3.org/2000/svg" xmlns:xlink="http://www.w3.org/1999/xlink"><g><path d="M23.2,20.1c11.4,0,20.7,9.3,20.7,20.7c0,11.4-9.3,20.7-20.7,20.7S2.5,52.2,2.5,40.8   C2.5,29.4,11.8,20.1,23.2,20.1 M23.2,17.6C10.4,17.6,0,28,0,40.8C0,53.6,10.4,64,23.2,64s23.2-10.4,23.2-23.2   C46.4,28,36,17.6,23.2,17.6L23.2,17.6z" fill="#20293B"/><path d="M33.9,39.9c0,6.4-5.2,11.6-11.6,11.6" fill="none" stroke="#20293B" stroke-miterlimit="10" stroke-width="1.5"/><path d="M38.4,40.8c0,8.4-6.8,15.2-15.2,15.2" fill="none" stroke="#20293B" stroke-miterlimit="10" stroke-width="1.5"/><path d="M12.5,41.7c0-6.4,5.2-11.6,11.6-11.6" fill="none" stroke="#20293B" stroke-miterlimit="10" stroke-width="1.5"/><path d="M8,40.8c0-8.4,6.8-15.2,15.2-15.2" fill="none" stroke="#20293B" stroke-miterlimit="10" stroke-width="1.5"/><path d="M23.2,39.3c0.8,0,1.5,0.7,1.5,1.5s-0.7,1.5-1.5,1.5s-1.5-0.7-1.5-1.5S22.4,39.3,23.2,39.3 M23.2,36.8   c-2.2,0-4,1.8-4,4s1.8,4,4,4s4-1.8,4-4S25.4,36.8,23.2,36.8L23.2,36.8z" fill="#20293B"/></g><polygon fill="#20293B" points="61.3,15.3 56,15.3 56,12.8 58.8,12.8 58.8,0 64,0 64,2.5 61.3,2.5 "/><polygon fill="#20293B" points="53.3,18.5 48,18.5 48,16 50.8,16 50.8,3.2 56,3.2 56,5.7 53.3,5.7 "/></svg>