<?xml version="1.0" ?><svg id="Layer_1" style="enable-background:new 0 0 96 96;" version="1.1" viewBox="0 0 96 96" height="512px" width="512px" xml:space="preserve" xmlns="http://www.w3.org/2000/svg" xmlns:xlink="http://www.w3.org/1999/xlink"><path d="M49.3,16.5c-13.6,0-26.6,9.3-26.6,23.7c0,6.5,2.6,13.2,9,15.8c0.6,0.2,1.2,0.4,1.8,0.4c-0.5,1.9-0.9,3.9-1.4,5.8  c-1,4.4-0.8,9.1-0.2,13.5c0.5,3.9,5.5,5.2,7.9,2.1c2.6-3.4,5.2-7.5,6.4-11.7c0.3-0.9,0.5-1.9,0.8-2.9c1.7,0.7,3.6,1.1,5.3,1.1  c13.9,0,21-13,21-25.6C73.3,25.5,61.9,16.5,49.3,16.5z M52.2,60.2c-3.4,0-6.6-1.8-7.7-3.9c0,0-1.8,7.3-2.2,8.7  c-1.4,5-5.4,9.9-5.7,10.3c-0.2,0.3-0.7,0.2-0.8-0.2c-0.1-0.6-1.1-6.9,0.1-12c0.6-2.6,4.1-17.2,4.1-17.2s-1-2-1-5  c0-4.7,2.7-8.2,6.1-8.2c2.9,0,4.3,2.2,4.3,4.7c0,2.9-1.8,7.2-2.8,11.2c-0.8,3.3,1.7,6.1,5,6.1c6,0,10-7.7,10-16.8  c0-6.9-4.7-12.1-13.1-12.1c-9.6,0-15.5,7.1-15.5,15.1c0,2.8,0.8,4.7,2.1,6.2c0.6,0.7,0.7,1,0.5,1.8c-0.1,0.6-0.5,2-0.6,2.5  c-0.2,0.8-0.9,1.1-1.6,0.8c-4.4-1.8-6.5-6.6-6.5-12.1c0-9,7.6-19.7,22.6-19.7c12.1,0,20,8.7,20,18.1C69.3,51,62.4,60.2,52.2,60.2z   M49.5,30c4.7,0.3,8.1,2.9,8.1,8.1c0,3.2-1.4,12.8-6,12.8c-0.7,0-1.3-0.4-1.1-1.2c0.9-3.8,2.9-8.3,2.9-12.1  C53.4,34.3,51.9,31.5,49.5,30z M48,0C21.5,0,0,21.5,0,48s21.5,48,48,48c26.5,0,48-21.5,48-48C96,21.5,74.5,0,48,0z M48,92  C23.7,92,4,72.3,4,48C4,23.7,23.7,4,48,4c24.3,0,44,19.7,44,44C92,72.3,72.3,92,48,92z"/></svg>